<svg xmlns="http://www.w3.org/2000/svg" style="display: none;" height="0" width="0">
  <defs>
    
    
    <symbol viewBox="0 0 40 40" id="icon-instagram">
<rect width="40" height="40" rx="20" fill="url(#paint0_radial_3708_1317)"/>
<path d="M20 11.8072C22.6506 11.8072 23.0121 11.8072 24.0964 11.8072C25.0602 11.8072 25.5422 12.0482 25.9036 12.1687C26.3855 12.4096 26.747 12.5301 27.1084 12.8916C27.4699 13.253 27.7108 13.6145 27.8313 14.0964C27.9518 14.4578 28.0723 14.9398 28.1928 15.9036C28.1928 16.988 28.1928 17.2289 28.1928 20C28.1928 22.7711 28.1928 23.0121 28.1928 24.0964C28.1928 25.0602 27.9518 25.5422 27.8313 25.9036C27.5904 26.3855 27.4699 26.747 27.1084 27.1084C26.747 27.4699 26.3855 27.7108 25.9036 27.8313C25.5422 27.9518 25.0602 28.0723 24.0964 28.1928C23.0121 28.1928 22.7711 28.1928 20 28.1928C17.2289 28.1928 16.988 28.1928 15.9036 28.1928C14.9398 28.1928 14.4578 27.9518 14.0964 27.8313C13.6145 27.5904 13.253 27.4699 12.8916 27.1084C12.5301 26.747 12.2892 26.3855 12.1687 25.9036C12.0482 25.5422 11.9277 25.0602 11.8072 24.0964C11.8072 23.0121 11.8072 22.7711 11.8072 20C11.8072 17.2289 11.8072 16.988 11.8072 15.9036C11.8072 14.9398 12.0482 14.4578 12.1687 14.0964C12.4096 13.6145 12.5301 13.253 12.8916 12.8916C13.253 12.5301 13.6145 12.2892 14.0964 12.1687C14.4578 12.0482 14.9398 11.9277 15.9036 11.8072C16.988 11.8072 17.3494 11.8072 20 11.8072ZM20 10C17.2289 10 16.988 10 15.9036 10C14.8193 10 14.0964 10.241 13.494 10.4819C12.8916 10.7229 12.2892 11.0843 11.6867 11.6867C11.0843 12.2892 10.8434 12.7711 10.4819 13.494C10.241 14.0964 10.1205 14.8193 10 15.9036C10 16.988 10 17.3494 10 20C10 22.7711 10 23.0121 10 24.0964C10 25.1807 10.241 25.9036 10.4819 26.506C10.7229 27.1084 11.0843 27.7108 11.6867 28.3133C12.2892 28.9157 12.7711 29.1566 13.494 29.5181C14.0964 29.759 14.8193 29.8795 15.9036 30C16.988 30 17.3494 30 20 30C22.6506 30 23.0121 30 24.0964 30C25.1807 30 25.9036 29.759 26.506 29.5181C27.1084 29.2771 27.7108 28.9157 28.3133 28.3133C28.9157 27.7108 29.1566 27.2289 29.5181 26.506C29.759 25.9036 29.8795 25.1807 30 24.0964C30 23.0121 30 22.6506 30 20C30 17.3494 30 16.988 30 15.9036C30 14.8193 29.759 14.0964 29.5181 13.494C29.2771 12.8916 28.9157 12.2892 28.3133 11.6867C27.7108 11.0843 27.2289 10.8434 26.506 10.4819C25.9036 10.241 25.1807 10.1205 24.0964 10C23.0121 10 22.7711 10 20 10Z" fill="white"/>
<path d="M20 14.8193C17.1084 14.8193 14.8193 17.1084 14.8193 20C14.8193 22.8916 17.1084 25.1807 20 25.1807C22.8916 25.1807 25.1807 22.8916 25.1807 20C25.1807 17.1084 22.8916 14.8193 20 14.8193ZM20 23.3735C18.1928 23.3735 16.6265 21.9277 16.6265 20C16.6265 18.1928 18.0723 16.6265 20 16.6265C21.8072 16.6265 23.3735 18.0723 23.3735 20C23.3735 21.8072 21.8072 23.3735 20 23.3735Z" fill="white"/>
<path d="M25.3012 15.9036C25.9666 15.9036 26.506 15.3642 26.506 14.6988C26.506 14.0334 25.9666 13.494 25.3012 13.494C24.6358 13.494 24.0964 14.0334 24.0964 14.6988C24.0964 15.3642 24.6358 15.9036 25.3012 15.9036Z" fill="white"/>
<defs>
<radialGradient id="paint0_radial_3708_1317" cx="0" cy="0" r="1" gradientUnits="userSpaceOnUse" gradientTransform="translate(40.8047 0.812501) scale(92.3719)">
<stop stop-color="#F9ED32"/>
<stop offset="0.36" stop-color="#EE2A7B"/>
<stop offset="0.44" stop-color="#D22A8A"/>
<stop offset="0.6" stop-color="#8B2AB2"/>
<stop offset="0.83" stop-color="#1B2AF0"/>
<stop offset="0.88" stop-color="#002AFF"/>
</radialGradient>
</defs>
    </symbol>

    
    <symbol viewBox="0 0 40 40" id="icon-telegram">
      <rect fill="#27A6E5" rx="20" height="40" width="40"></rect>
      <path fill="#FEFEFE" d="M28 12.6022L24.9946 28.2923C24.9946 28.2923 24.5741 29.3801 23.4189 28.8584L16.4846 23.3526L16.4524 23.3364C17.3891 22.4654 24.6524 15.7027 24.9698 15.3961C25.4613 14.9214 25.1562 14.6387 24.5856 14.9974L13.8568 22.053L9.71764 20.6108C9.71764 20.6108 9.06626 20.3708 9.00359 19.8491C8.9401 19.3265 9.73908 19.0439 9.73908 19.0439L26.6131 12.1889C26.6131 12.1889 28 11.5579 28 12.6022Z"></path>
    </symbol>

    
    <symbol viewBox="0 0 40 40" id="icon-whatsapp">
      <rect fill="#48C95F" rx="20" height="40" width="40"></rect>
      <path fill="white" d="M27.9268 12.0625C25.9512 10.0937 23.3171 9 20.5366 9C14.7561 9 10.0732 13.6667 10.0732 19.4271C10.0732 21.25 10.5854 23.0729 11.4634 24.6042L10 30L15.561 28.5417C17.0976 29.3438 18.7805 29.7812 20.5366 29.7812C26.3171 29.7812 31 25.1146 31 19.3542C30.9268 16.6563 29.9024 14.0312 27.9268 12.0625ZM25.5854 23.1458C25.3659 23.7292 24.3415 24.3125 23.8293 24.3854C23.3902 24.4583 22.8049 24.4583 22.2195 24.3125C21.8537 24.1667 21.3415 24.0208 20.7561 23.7292C18.122 22.6354 16.439 20.0104 16.2927 19.7917C16.1463 19.6458 15.1951 18.4062 15.1951 17.0937C15.1951 15.7812 15.8537 15.1979 16.0732 14.9062C16.2927 14.6146 16.5854 14.6146 16.8049 14.6146C16.9512 14.6146 17.1707 14.6146 17.3171 14.6146C17.4634 14.6146 17.6829 14.5417 17.9024 15.0521C18.122 15.5625 18.6341 16.875 18.7073 16.9479C18.7805 17.0938 18.7805 17.2396 18.7073 17.3854C18.6341 17.5312 18.561 17.6771 18.4146 17.8229C18.2683 17.9687 18.1219 18.1875 18.0488 18.2604C17.9024 18.4062 17.7561 18.5521 17.9024 18.7708C18.0488 19.0625 18.561 19.8646 19.3659 20.5937C20.3902 21.4687 21.1951 21.7604 21.4878 21.9063C21.7805 22.0521 21.9268 21.9792 22.0732 21.8333C22.2195 21.6875 22.7317 21.1042 22.878 20.8125C23.0244 20.5208 23.2439 20.5938 23.4634 20.6667C23.6829 20.7396 25 21.3958 25.2195 21.5417C25.5122 21.6875 25.6585 21.7604 25.7317 21.8333C25.8049 22.0521 25.8049 22.5625 25.5854 23.1458Z"></path>
    </symbol>

    
    <symbol viewBox="0 0 40 40" id="icon-tiktok">
      <rect fill="#111111" rx="20" height="40" width="40"></rect>
      <path fill="url(#tiktok-gradient1)" d="M29.9684 15.276C29.2785 15.276 28.5954 15.1402 27.958 14.8762C27.3206 14.6121 26.7414 14.2252 26.2536 13.7373C25.7657 13.2495 25.3788 12.6704 25.1147 12.033C24.8507 11.3956 24.7148 10.7124 24.7148 10.0225H20.9615V24.7199C20.9608 25.39 20.7492 26.0429 20.3567 26.586C19.9642 27.1291 19.4108 27.5349 18.7748 27.7459C18.1388 27.9569 17.4525 27.9623 16.8132 27.7615C16.1739 27.5607 15.6141 27.1637 15.213 26.6269C14.8119 26.0901 14.5899 25.4407 14.5785 24.7707C14.5672 24.1008 14.7669 23.4442 15.1495 22.8941C15.5322 22.344 16.0782 21.9282 16.7103 21.7058C17.3424 21.4833 18.0284 21.4655 18.6712 21.6547V18.0062C17.3052 17.822 15.9154 18.059 14.6875 18.6854C13.4597 19.3119 12.4521 20.298 11.7994 21.5121C11.1468 22.7263 10.8801 24.1106 11.0349 25.4803C11.1897 26.8501 11.7587 28.1399 12.6659 29.1778C13.5731 30.2156 14.7754 30.9519 16.1121 31.2885C17.4488 31.625 18.8564 31.5458 20.1469 31.0613C21.4374 30.5768 22.5494 29.7102 23.3343 28.5771C24.1193 27.444 24.5399 26.0984 24.54 24.7199L24.6489 17.2908C26.1911 18.4229 28.0549 19.0321 29.968 19.0292L29.9684 15.276Z"></path>
      
    </symbol>

    
    <symbol viewBox="0 0 40 40" id="icon-twitter">
      <rect fill="#55ACE3" rx="20" height="40" width="40"></rect>
      <path fill="white" d="M30.6 14.9C29.9 15.2 29.1 15.4 28.3 15.5C29.1 15 29.8 14.2 30.1 13.3C29.3 13.8 28.5 14.1 27.5 14.3C26.8 13.5 25.7 13 24.6 13C22.4 13 20.6 14.8 20.6 17C20.6 17.3 20.6 17.6 20.7 17.9C17.4 17.7 14.4 16.1 12.4 13.7C12.1 14.3 11.9 15 11.9 15.7C11.9 17.1 12.6 18.3 13.7 19C13 19 12.4 18.8 11.9 18.5C11.9 20.4 13.3 22.1 15.1 22.4C14.8 22.5 14.4 22.5 14 22.5C13.7 22.5 13.5 22.5 13.2 22.4C13.7 24 15.2 25.2 17 25.2C15.6 26.3 13.9 26.9 12 26.9C11.7 26.9 11.4 26.9 11 26.8C12.8 27.9 14.9 28.6 17.2 28.6C24.6 28.6 28.6 22.5 28.6 17.2V16.7C29.4 16.4 30.1 15.7 30.6 14.9Z"></path>
    </symbol>

    
    <symbol viewBox="0 0 40 40" id="icon-facebook">
      <rect fill="#0B84EE" rx="20" height="40" width="40"></rect>
      <path fill="white" d="M21.6571 20.3648H25.3793L25.9637 16.5605H21.6563V14.4813C21.6563 12.901 22.1696 11.4996 23.6389 11.4996H26V8.17974C25.5852 8.12338 24.7078 8 23.05 8C19.5882 8 17.5587 9.8393 17.5587 14.0297V16.5605H14V20.3648H17.5587V30.821C18.2634 30.9276 18.9773 31 19.7101 31C20.3724 31 21.0189 30.9391 21.6571 30.8522V20.3648Z"></path>
    </symbol>

    
    <symbol viewBox="0 0 40 40" id="icon-viber">
      <rect fill="#7C509A" rx="20" height="40" width="40"></rect>
      <path fill="white" d="M26.2539 9.54591C22.4424 8.81803 18.4843 8.81803 14.6728 9.54591C12.9869 9.90986 10.8613 11.9479 10.4948 13.5493C9.83508 16.6792 9.83508 19.8819 10.4948 23.0118C10.9346 24.6131 13.0602 26.6512 14.6728 27.0152C14.7461 27.0152 14.8194 27.0879 14.8194 27.1607V31.7464C14.8194 31.9648 15.1126 32.1103 15.2592 31.892L17.4581 29.6355C17.4581 29.6355 19.2173 27.8158 19.5105 27.5247C19.5105 27.5247 19.5838 27.4519 19.6571 27.4519C21.856 27.5247 24.1283 27.3063 26.3272 26.9424C28.0131 26.5784 30.1387 24.5403 30.5052 22.939C31.1649 19.8091 31.1649 16.6064 30.5052 13.4765C30.0654 11.9479 27.9398 9.90986 26.2539 9.54591Z"></path>
      
    </symbol>

  </defs>
</svg>
