<svg aria-hidden="true" style="position: absolute; width: 0; height: 0; overflow: hidden;" version="1.1" xmlns="http://www.w3.org/2000/svg" xmlns:xlink="http://www.w3.org/1999/xlink">
<defs>
<symbol id="icon-tiktok" viewBox="0 0 32 32">
<path fill="#000" style="fill: var(--color1, #000)" d="M16 0c8.837 0 16 7.163 16 16s-7.163 16-16 16c-8.837 0-16-7.163-16-16s7.163-16 16-16z"></path>
<path fill="#fff" style="fill: var(--color2, #fff)" d="M23.981 11.403c-1.115-0-2.184-0.443-2.972-1.231s-1.231-1.857-1.231-2.972h-3.003v11.758c-0.001 0.536-0.17 1.058-0.484 1.493s-0.757 0.759-1.266 0.928-1.058 0.173-1.569 0.013c-0.511-0.161-0.959-0.478-1.28-0.908s-0.498-0.949-0.508-1.485c-0.009-0.536 0.151-1.061 0.457-1.501s0.743-0.773 1.249-0.951c0.506-0.178 1.054-0.192 1.569-0.041v-2.919c-1.093-0.147-2.205 0.042-3.187 0.543s-1.788 1.29-2.31 2.261c-0.522 0.971-0.736 2.079-0.612 3.175s0.579 2.128 1.305 2.958 1.688 1.419 2.757 1.689c1.069 0.269 2.195 0.206 3.228-0.182s1.922-1.081 2.55-1.987c0.628-0.906 0.964-1.983 0.964-3.086l0.088-5.943c1.234 0.906 2.725 1.393 4.255 1.391l-0-3.002z"></path>
</symbol>
<symbol id="icon-facebook" viewBox="0 0 32 32">
<path fill="#000" style="fill: var(--color1, #000)" d="M16 0c8.837 0 16 7.163 16 16s-7.163 16-16 16c-8.837 0-16-7.163-16-16s7.163-16 16-16z"></path>
<path fill="#fff" style="fill: var(--color2, #fff)" d="M17.326 16.292h2.978l0.468-3.043h-3.446v-1.663c0-1.264 0.411-2.385 1.586-2.385h1.889v-2.656c-0.332-0.045-1.034-0.144-2.36-0.144-2.769 0-4.393 1.471-4.393 4.824v2.025h-2.847v3.043h2.847v8.365c0.564 0.085 1.135 0.143 1.721 0.143 0.53 0 1.047-0.049 1.558-0.118v-8.39z"></path>
</symbol>
<symbol id="icon-instagramm" viewBox="0 0 32 32">
<path fill="#000" style="fill: var(--color1, #000)" d="M16 0c8.837 0 16 7.163 16 16s-7.163 16-16 16c-8.837 0-16-7.163-16-16s7.163-16 16-16z"></path>
<path fill="#fff" style="fill: var(--color2, #fff)" d="M16 9.446c2.12 0 2.41 0 3.277 0 0.771 0 1.157 0.193 1.446 0.289 0.386 0.193 0.675 0.289 0.964 0.578s0.482 0.578 0.578 0.964c0.096 0.289 0.193 0.675 0.289 1.446 0 0.868 0 1.060 0 3.277s0 2.41 0 3.277c0 0.771-0.193 1.157-0.289 1.446-0.193 0.386-0.289 0.675-0.578 0.964s-0.578 0.482-0.964 0.578c-0.289 0.096-0.675 0.193-1.446 0.289-0.867 0-1.060 0-3.277 0s-2.41 0-3.277 0c-0.771 0-1.157-0.193-1.446-0.289-0.386-0.193-0.675-0.289-0.964-0.578s-0.482-0.578-0.578-0.964c-0.096-0.289-0.193-0.675-0.289-1.446 0-0.867 0-1.060 0-3.277s0-2.41 0-3.277c0-0.771 0.193-1.157 0.289-1.446 0.193-0.386 0.289-0.675 0.578-0.964s0.578-0.482 0.964-0.578c0.289-0.096 0.675-0.193 1.446-0.289 0.868 0 1.157 0 3.277 0zM16 8c-2.217 0-2.41 0-3.277 0s-1.446 0.193-1.928 0.386c-0.482 0.193-0.964 0.482-1.446 0.964s-0.675 0.868-0.964 1.446c-0.193 0.482-0.289 1.060-0.386 1.928 0 0.868 0 1.157 0 3.277 0 2.217 0 2.41 0 3.277s0.193 1.446 0.386 1.928c0.193 0.482 0.482 0.964 0.964 1.446s0.868 0.675 1.446 0.964c0.482 0.193 1.060 0.289 1.928 0.386 0.868 0 1.157 0 3.277 0s2.41 0 3.277 0c0.867 0 1.446-0.193 1.928-0.386s0.964-0.482 1.446-0.964c0.482-0.482 0.675-0.868 0.964-1.446 0.193-0.482 0.289-1.060 0.386-1.928 0-0.867 0-1.157 0-3.277s0-2.41 0-3.277c0-0.867-0.193-1.446-0.386-1.928s-0.482-0.964-0.964-1.446c-0.482-0.482-0.868-0.675-1.446-0.964-0.482-0.193-1.060-0.289-1.928-0.386-0.867 0-1.060 0-3.277 0z"></path>
<path fill="#fff" style="fill: var(--color2, #fff)" d="M16 11.855c-2.313 0-4.145 1.831-4.145 4.145s1.831 4.145 4.145 4.145c2.313 0 4.145-1.831 4.145-4.145s-1.831-4.145-4.145-4.145zM16 18.699c-1.446 0-2.699-1.157-2.699-2.699 0-1.446 1.157-2.699 2.699-2.699 1.446 0 2.699 1.157 2.699 2.699 0 1.446-1.253 2.699-2.699 2.699z"></path>
<path fill="#fff" style="fill: var(--color2, #fff)" d="M20.241 12.723c0.532 0 0.964-0.432 0.964-0.964s-0.432-0.964-0.964-0.964c-0.532 0-0.964 0.432-0.964 0.964s0.432 0.964 0.964 0.964z"></path>
</symbol>
<symbol id="icon-twitter" viewBox="0 0 32 32">
<path fill="#000" style="fill: var(--color1, #000)" d="M16 0c8.837 0 16 7.163 16 16s-7.163 16-16 16c-8.837 0-16-7.163-16-16s7.163-16 16-16z"></path>
<path fill="#fff" style="fill: var(--color2, #fff)" d="M24.48 11.92c-0.56 0.24-1.2 0.4-1.84 0.48 0.64-0.4 1.2-1.040 1.44-1.76-0.64 0.4-1.28 0.64-2.080 0.8-0.56-0.64-1.44-1.040-2.32-1.040-1.76 0-3.2 1.44-3.2 3.2 0 0.24 0 0.48 0.080 0.72-2.64-0.16-5.040-1.44-6.64-3.36-0.24 0.48-0.4 1.040-0.4 1.6 0 1.12 0.56 2.080 1.44 2.64-0.56 0-1.040-0.16-1.44-0.4 0 1.52 1.12 2.88 2.56 3.12-0.24 0.080-0.56 0.080-0.88 0.080-0.24 0-0.4 0-0.64-0.080 0.4 1.28 1.6 2.24 3.040 2.24-1.12 0.88-2.48 1.36-4 1.36-0.24 0-0.48 0-0.8-0.080 1.44 0.88 3.12 1.44 4.96 1.44 5.92 0 9.12-4.88 9.12-9.12v-0.4c0.64-0.24 1.2-0.8 1.6-1.44z"></path>
</symbol>
</defs>
</svg>
